<svg width="13" height="14" viewBox="0 0 13 14" fill="none" xmlns="http://www.w3.org/2000/svg">
<g clip-path="url(#clip0_504_2558)">
<path fill-rule="evenodd" clip-rule="evenodd" d="M8.74977 1.38525C10.661 1.38525 11.9452 2.72688 11.9452 4.7235L11.9452 9.37649C11.9452 11.3731 10.661 12.7147 8.74977 12.7147L3.81116 12.7147C1.89991 12.7147 0.615723 11.3731 0.615723 9.37649L0.615723 4.7235C0.615723 2.72688 1.89991 1.38525 3.81116 1.38525L8.74977 1.38525ZM8.74977 2.17568L3.81116 2.17568C2.35045 2.17568 1.40615 3.17531 1.40615 4.7235L1.40615 9.37649C1.40615 10.9247 2.35045 11.9243 3.81116 11.9243L8.74977 11.9243C10.211 11.9243 11.1548 10.9247 11.1548 9.37649L11.1548 4.7235C11.1548 3.17531 10.211 2.17568 8.74977 2.17568ZM3.84125 5.70758C4.05941 5.70758 4.23647 5.88464 4.23647 6.1028L4.23647 9.7177C4.23647 9.93585 4.05941 10.1129 3.84125 10.1129C3.6231 10.1129 3.44604 9.93585 3.44604 9.7177L3.44604 6.1028C3.44604 5.88464 3.6231 5.70758 3.84125 5.70758ZM6.30054 3.97707C6.5187 3.97707 6.69576 4.15413 6.69576 4.37229L6.69576 9.71717C6.69576 9.93533 6.5187 10.1124 6.30054 10.1124C6.08238 10.1124 5.90533 9.93533 5.90533 9.71717L5.90533 4.37229C5.90533 4.15413 6.08238 3.97707 6.30054 3.97707ZM8.71941 7.61779C8.93757 7.61779 9.11463 7.79484 9.11463 8.013V9.71717C9.11463 9.93533 8.93757 10.1124 8.71941 10.1124C8.50126 10.1124 8.3242 9.93533 8.3242 9.71717V8.013C8.3242 7.79484 8.50126 7.61779 8.71941 7.61779Z" fill="#C4C4C4"/>
</g>
<defs>
<clipPath id="clip0_504_2558">
<rect width="12.6469" height="12.6469" fill="white" transform="translate(0.0883789 0.859375)"/>
</clipPath>
</defs>
</svg>
