<svg width="14" height="14" viewBox="0 0 14 14" fill="none" xmlns="http://www.w3.org/2000/svg">
<g clip-path="url(#clip0_504_2570)">
<path fill-rule="evenodd" clip-rule="evenodd" d="M8.31163 2.11332C8.54018 2.11332 8.72566 2.2988 8.72566 2.52735C8.72566 2.7559 8.54018 2.94138 8.31163 2.94138H4.29936C2.91483 2.94138 2.01996 3.89311 2.01996 5.36707V9.82871C2.01996 11.322 2.8933 12.2494 4.29936 12.2494H9.04916C10.4337 12.2494 11.3286 11.2994 11.3286 9.82871V5.94286C11.3286 5.71431 11.514 5.52882 11.7426 5.52882C11.9711 5.52882 12.1566 5.71431 12.1566 5.94286V9.82871C12.1566 11.7719 10.9079 13.0775 9.04916 13.0775H4.29936C2.44062 13.0775 1.19189 11.7719 1.19189 9.82871L1.19189 5.36707C1.19189 3.42111 2.44062 2.11332 4.29936 2.11332H8.31163ZM9.47943 5.88368C9.6605 6.0239 9.69362 6.28391 9.5534 6.46443L7.93591 8.55116C7.86856 8.63839 7.76919 8.69525 7.65988 8.7085C7.54948 8.7234 7.44017 8.69138 7.35295 8.62348L5.79728 7.40125L4.40005 9.21693C4.31835 9.32292 4.1958 9.37868 4.07159 9.37868C3.98326 9.37868 3.89438 9.35052 3.8193 9.29311C3.63823 9.15344 3.604 8.89343 3.74367 8.71236L5.39594 6.5649C5.46329 6.47713 5.56321 6.42027 5.67252 6.40646C5.78403 6.39211 5.89334 6.42303 5.98001 6.49203L7.53678 7.71481L8.89868 5.95765C9.03889 5.77603 9.29836 5.74235 9.47943 5.88368ZM11.1107 1.64844C11.9244 1.64844 12.5858 2.30979 12.5858 3.1235C12.5858 3.93722 11.9244 4.59912 11.1107 4.59912C10.2976 4.59912 9.63566 3.93722 9.63566 3.1235C9.63566 2.30979 10.2976 1.64844 11.1107 1.64844ZM11.1107 2.47651C10.7541 2.47651 10.4637 2.76633 10.4637 3.1235C10.4637 3.48013 10.7541 3.77105 11.1107 3.77105C11.4673 3.77105 11.7577 3.48013 11.7577 3.1235C11.7577 2.76633 11.4673 2.47651 11.1107 2.47651Z" fill="#C4C4C4"/>
</g>
<defs>
<clipPath id="clip0_504_2570">
<rect width="13.2491" height="13.2491" fill="white" transform="translate(0.0888672 0.543945)"/>
</clipPath>
</defs>
</svg>
