<svg width="14" height="13" viewBox="0 0 14 13" fill="none" xmlns="http://www.w3.org/2000/svg">
<g filter="url(#filter0_d_504_2563)">
<path fill-rule="evenodd" clip-rule="evenodd" d="M7.91894 7.96685C8.55339 7.96685 9.0698 8.47958 9.0698 9.10981V10.7307C9.0698 10.8661 9.17835 10.9747 9.31747 10.9779H10.3218C11.1133 10.9779 11.7567 10.3424 11.7567 9.56141L11.7567 4.96427C11.753 4.69553 11.625 4.44259 11.4053 4.27449L7.93106 1.50377C7.4647 1.13438 6.81233 1.13438 6.3444 1.50483L2.89391 4.27344C2.66574 4.44681 2.53769 4.69974 2.53506 4.97323L2.53506 9.56141C2.53506 10.3424 3.17847 10.9779 3.96995 10.9779H4.98381C5.12661 10.9779 5.24254 10.8646 5.24254 10.7255C5.24254 10.6949 5.24623 10.6643 5.25255 10.6353V9.10981C5.25255 8.48327 5.76581 7.97107 6.39551 7.96685H7.91894ZM10.3218 11.7683H9.30798C8.72728 11.7546 8.27937 11.2988 8.27937 10.7307V9.10981C8.27937 8.91537 8.1176 8.75728 7.91894 8.75728L6.39815 8.75728C6.2037 8.75833 6.04298 8.91695 6.04298 9.10981V10.7255C6.04298 10.765 6.03771 10.8029 6.02665 10.8387C5.96974 11.3604 5.52393 11.7683 4.98381 11.7683H3.96995C2.74268 11.7683 1.74463 10.7781 1.74463 9.56141L1.74463 4.96954C1.7499 4.44575 1.99124 3.96622 2.40806 3.65058L5.8517 0.886712C6.60998 0.285985 7.66653 0.285985 8.42323 0.885658L11.8916 3.65216C12.299 3.96254 12.5403 4.44101 12.5472 4.95848L12.5472 9.56141C12.5472 10.7781 11.5491 11.7683 10.3218 11.7683Z" fill="#C4C4C4"/>
</g>
<defs>
<filter id="filter0_d_504_2563" x="-2.25537" y="0.436035" width="18.8027" height="19.332" filterUnits="userSpaceOnUse" color-interpolation-filters="sRGB">
<feFlood flood-opacity="0" result="BackgroundImageFix"/>
<feColorMatrix in="SourceAlpha" type="matrix" values="0 0 0 0 0 0 0 0 0 0 0 0 0 0 0 0 0 0 127 0" result="hardAlpha"/>
<feOffset dy="4"/>
<feGaussianBlur stdDeviation="2"/>
<feComposite in2="hardAlpha" operator="out"/>
<feColorMatrix type="matrix" values="0 0 0 0 0 0 0 0 0 0 0 0 0 0 0 0 0 0 0.25 0"/>
<feBlend mode="normal" in2="BackgroundImageFix" result="effect1_dropShadow_504_2563"/>
<feBlend mode="normal" in="SourceGraphic" in2="effect1_dropShadow_504_2563" result="shape"/>
</filter>
</defs>
</svg>
