<svg width="16" height="16" viewBox="0 0 16 16" fill="none" xmlns="http://www.w3.org/2000/svg">
<path fill-rule="evenodd" clip-rule="evenodd" d="M8.01446 2.07031C11.4735 2.07031 14.2877 4.88449 14.2877 8.34356C14.2877 11.8026 11.4735 14.6168 8.01446 14.6168C4.55539 14.6168 1.74121 11.8026 1.74121 8.34356C1.74121 4.88449 4.55539 2.07031 8.01446 2.07031ZM8.01446 3.0113C5.07419 3.0113 2.6822 5.40329 2.6822 8.34356C2.6822 11.2838 5.07419 13.6758 8.01446 13.6758C10.9547 13.6758 13.3467 11.2838 13.3467 8.34356C13.3467 5.40329 10.9547 3.0113 8.01446 3.0113ZM8.01691 10.0975C8.36382 10.0975 8.64423 10.3779 8.64423 10.7248C8.64423 11.0717 8.36382 11.3521 8.01691 11.3521C7.66999 11.3521 7.38644 11.0717 7.38644 10.7248C7.38644 10.3779 7.66435 10.0975 8.01063 10.0975H8.01691ZM8.01076 5.49174C8.27047 5.49174 8.48125 5.70252 8.48125 5.96224L8.48125 8.73438C8.48125 8.9941 8.27047 9.20488 8.01076 9.20488C7.75105 9.20488 7.54026 8.9941 7.54026 8.73438L7.54026 5.96224C7.54026 5.70252 7.75105 5.49174 8.01076 5.49174Z" fill="#C4C4C4"/>
</svg>
