<svg width="13" height="14" viewBox="0 0 13 14" fill="none" xmlns="http://www.w3.org/2000/svg">
<path fill-rule="evenodd" clip-rule="evenodd" d="M9.99899 0.208984C11.5902 0.208984 12.8859 1.50403 12.8859 3.09593L12.8859 10.3632C12.8859 11.959 11.587 13.2573 9.99182 13.2573H6.80476C5.21351 13.2573 3.91846 11.9623 3.91846 10.3704V9.75581C3.91846 9.48571 4.13767 9.2665 4.40777 9.2665C4.67787 9.2665 4.89709 9.48571 4.89709 9.75581V10.3704C4.89709 11.4221 5.75306 12.2787 6.80476 12.2787H9.99182C11.0481 12.2787 11.9073 11.4201 11.9073 10.3632L11.9073 3.09593C11.9073 2.04424 11.0507 1.18761 9.99899 1.18761L6.81193 1.18761C5.75632 1.18761 4.89709 2.04619 4.89709 3.1018V3.71051C4.89709 3.98061 4.67787 4.19982 4.40777 4.19982C4.13767 4.19982 3.91846 3.98061 3.91846 3.71051V3.1018C3.91846 1.50664 5.21677 0.208984 6.81193 0.208984L9.99899 0.208984ZM7.61069 4.48428L9.52159 6.38722C9.53709 6.40272 9.55155 6.41925 9.56487 6.4367L9.52162 6.38673C9.54767 6.41241 9.57047 6.44078 9.58979 6.47117C9.59374 6.47879 9.59819 6.48623 9.60245 6.4938C9.60989 6.50548 9.61619 6.51789 9.62195 6.53055C9.6252 6.53952 9.62896 6.54845 9.63244 6.55751C9.63802 6.56991 9.64232 6.58266 9.6461 6.59557C9.6483 6.60575 9.65091 6.6159 9.65321 6.62617C9.65677 6.63861 9.65906 6.65112 9.66086 6.66373C9.66088 6.66947 9.66162 6.67549 9.66226 6.68154C9.6649 6.69877 9.6658 6.71592 9.6658 6.73316L9.66104 6.7847L9.66049 6.79953C9.66034 6.80064 9.66018 6.80174 9.66002 6.80285L9.6658 6.73316C9.6658 6.76938 9.66179 6.80524 9.654 6.84011C9.65091 6.85043 9.6483 6.86058 9.64537 6.8706C9.64232 6.88367 9.63802 6.89641 9.63319 6.90896C9.62895 6.91787 9.62521 6.9268 9.6212 6.93559C9.61619 6.94843 9.60989 6.96085 9.60306 6.97298C9.59819 6.98009 9.59374 6.98754 9.5891 6.99485C9.58207 7.00729 9.5738 7.01911 9.56499 7.03056C9.55897 7.03732 9.55337 7.04425 9.54758 7.05102C9.53974 7.06099 9.53088 7.07046 9.52162 7.0796L7.61069 8.98139C7.51543 9.07665 7.39017 9.12427 7.26556 9.12427C7.14029 9.12427 7.01438 9.07665 6.91913 8.98009C6.72797 8.78828 6.72927 8.47903 6.92043 8.28853L7.99085 7.22248L1.31988 7.22248C1.04978 7.22248 0.830566 7.00326 0.830566 6.73316C0.830566 6.46306 1.04978 6.24385 1.31988 6.24385L7.99085 6.24385L6.92043 5.17715C6.72927 4.98664 6.72797 4.67739 6.91913 4.48558C7.11028 4.29377 7.41953 4.29377 7.61069 4.48428Z" fill="#98A0B2"/>
</svg>
